<?xml version="1.0" encoding="UTF-8"?> <svg xmlns="http://www.w3.org/2000/svg" xmlns:xlink="http://www.w3.org/1999/xlink" viewBox="0 0 300.05 108.97"><defs><style>.cls-1{fill:#23273e;}.cls-2{fill:url(#linear-gradient);}.cls-3{fill:url(#linear-gradient-2);}</style><linearGradient id="linear-gradient" x1="24.43" y1="25.83" x2="91.52" y2="25.83" gradientUnits="userSpaceOnUse"><stop offset="0" stop-color="#6fd1d1"></stop><stop offset="0.53" stop-color="#beb6cb"></stop><stop offset="1" stop-color="#ff9fc6"></stop></linearGradient><linearGradient id="linear-gradient-2" x1="0" y1="67.92" x2="91.54" y2="67.92" xlink:href="#linear-gradient"></linearGradient></defs><title>logo_no_strap</title><g id="Layer_2" data-name="Layer 2"><g id="Layer_1-2" data-name="Layer 1"><path class="cls-1" d="M128.8,51.53l-2.62-1c-2.36-.89-3.57-1.2-4.41-2a2.46,2.46,0,0,1-.79-1.94,3.12,3.12,0,0,1,.9-2.21,4.31,4.31,0,0,1,3.41-1.2,8.48,8.48,0,0,1,5.87,2.51l3.62-5.87a16.85,16.85,0,0,0-10.39-3.41c-3.25,0-6.19.69-8.65,3.21a10.73,10.73,0,0,0-3,7.87,8.57,8.57,0,0,0,2.1,6.08,11.85,11.85,0,0,0,4.88,2.78l2.89,1a16.85,16.85,0,0,1,4.09,1.94,3.08,3.08,0,0,1,1.21,2.52,3.69,3.69,0,0,1-1.26,2.84,5.69,5.69,0,0,1-3.68,1.2,8.16,8.16,0,0,1-4.4-1.26,22,22,0,0,1-3.26-2.67l-4.19,5.77a22.14,22.14,0,0,0,5.14,3.83A14.9,14.9,0,0,0,123.18,73c2.31,0,6.83-.32,9.92-3.57a12.57,12.57,0,0,0,3.1-8.66,8.76,8.76,0,0,0-2.57-6.5A13.7,13.7,0,0,0,128.8,51.53Z"></path><path class="cls-1" d="M159.45,36.41c-7,0-11.34,2.79-13.7,5.15a19.47,19.47,0,0,0-5.4,13.27,17.9,17.9,0,0,0,5.45,13A19.3,19.3,0,0,0,159.45,73,18.38,18.38,0,0,0,173,41.42h0C169.47,38,164.91,36.41,159.45,36.41Zm7.66,26.14a10.64,10.64,0,0,1-7.77,3,10.35,10.35,0,0,1-7.5-2.89,10.47,10.47,0,0,1-3.2-7.87,10.42,10.42,0,0,1,9.83-11c.31,0,.62,0,.93,0a11.18,11.18,0,0,1,7.71,3,11,11,0,0,1,3,7.87,10.49,10.49,0,0,1-3,7.81Z"></path><path class="cls-1" d="M198.91,53.41A5.82,5.82,0,0,0,201.54,51a7.7,7.7,0,0,0,1-4.14,9,9,0,0,0-2.78-6.93c-2.31-2.15-5.14-2.73-9.65-2.73h-5.3v35h8.76c2.68,0,7-.47,9.81-3.41a8.55,8.55,0,0,0,2.31-6.3,9.08,9.08,0,0,0-2.31-6.56A9.49,9.49,0,0,0,198.91,53.41ZM190.2,42.19H192a5.75,5.75,0,0,1,4.25,1.31,4.33,4.33,0,0,1,1.26,3.36,5.31,5.31,0,0,1-1.37,4,6.21,6.21,0,0,1-4.35,1.36H190.2Zm8.55,23.56c-1.36,1.1-3.77,1.36-5.3,1.36H190.2V56.62h3.36c1.89,0,4,.16,5.51,1.57a5.26,5.26,0,0,1,1.42,3.68A5,5,0,0,1,198.75,65.75Z"></path><path class="cls-1" d="M227.41,36.52A17.74,17.74,0,0,0,209.2,53.79c0,.3,0,.59,0,.89a18.21,18.21,0,0,0,36.41,0,17.76,17.76,0,0,0-17.33-18.17Zm0,31.38c-7.51,0-12.86-5.46-12.86-13.22s5.35-13.27,12.86-13.27,12.85,5.46,12.85,13.23S234.91,67.9,227.41,67.9Z"></path><polygon class="cls-1" points="257.69 37.15 252.33 37.15 252.33 72.15 267.97 72.15 267.97 67.11 257.69 67.11 257.69 37.15"></polygon><path class="cls-1" d="M293.37,40.56c-3.88-2.88-8.14-3.41-13-3.41H273v35h7.24c4.88,0,8.71-.47,12.8-3.36a16.67,16.67,0,0,0,7-14.11A17.33,17.33,0,0,0,293.37,40.56ZM290,64.65c-3,2.25-6.67,2.46-9.29,2.46H278.4V42.19h2.31c2.57,0,6.3.21,9.34,2.41a13,13,0,0,1,1.65,18.31A13.57,13.57,0,0,1,290,64.6Z"></path><path class="cls-2" d="M70.42,46.25l4.77-3.52a18.89,18.89,0,0,0,3.94-26.39A18.69,18.69,0,0,0,66.75,8.91a19.39,19.39,0,0,0-2.84-.21,18.64,18.64,0,0,0-11.17,3.69L37.23,23.86a32.13,32.13,0,0,0-9.68-1.5q-1.56,0-3.12.15L47.56,5.4A27.33,27.33,0,0,1,63.93,0,27.56,27.56,0,0,1,80.36,49.73l-2.62,1.94Z"></path><path class="cls-3" d="M63.93,109a27.32,27.32,0,0,1-16.37-5.41L24.41,86.43a30.86,30.86,0,0,0,3.16.17,31.94,31.94,0,0,0,9.68-1.5L52.74,96.56a18.63,18.63,0,0,0,11.19,3.71,20.47,20.47,0,0,0,2.82-.21,18.87,18.87,0,0,0,8.44-33.83l-36.43-27a18.7,18.7,0,0,0-11.21-3.7c-.48,0-.95,0-1.43.08a20.23,20.23,0,0,0-3.15.5,18.95,18.95,0,0,0-10.6,29.59A18.73,18.73,0,0,0,23,72.82c.57.14,1.15.26,1.75.35.26,0,.52,0,.79.07l.8.06c.42,0,.83.08,1.24.08a18.74,18.74,0,0,0,11.18-3.69l16.75-12.4,7.32,5.41-18.89,14a27.52,27.52,0,0,1-6.44,3.53c-.5.2-1,.38-1.43.53s-1,.31-1.55.44a27.53,27.53,0,0,1-22.14-3.65l-1.1-.82A27.49,27.49,0,0,1,.28,58.6c-.06-.38-.08-.67-.11-1l0-.49a27.38,27.38,0,0,1,11-24.8l1.23-.9a27.31,27.31,0,0,1,11.1-4.27,29,29,0,0,1,4.15-.31,27.71,27.71,0,0,1,6.91.9c.52.14,1,.28,1.55.45s1,.34,1.43.52a27.82,27.82,0,0,1,6.43,3.53l36.43,27A27.56,27.56,0,0,1,68,108.66a27.08,27.08,0,0,1-4.11.31Z"></path></g></g></svg> 