<?xml version="1.0" encoding="utf-8"?>
<svg viewBox="0 0 91.978 109.053" xmlns="http://www.w3.org/2000/svg" xmlns:xlink="http://www.w3.org/1999/xlink">
  <defs>
    <style>.cls-1{fill:#23273e;}.cls-2{fill:url(#linear-gradient);}.cls-3{fill:url(#linear-gradient-2);}</style>
    <linearGradient id="linear-gradient" x1="24.43" y1="25.83" x2="91.52" y2="25.83" gradientUnits="userSpaceOnUse">
      <stop offset="0" stop-color="#6fd1d1"/>
      <stop offset="0.53" stop-color="#beb6cb"/>
      <stop offset="1" stop-color="#ff9fc6"/>
    </linearGradient>
    <linearGradient id="linear-gradient-2" x1="0" y1="67.92" x2="91.54" y2="67.92" xlink:href="#linear-gradient"/>
  </defs>
  <title>logo_no_strap</title>
  <g id="Layer_2" data-name="Layer 2">
    <g id="Layer_1-2" data-name="Layer 1">
      <path class="cls-2" d="M70.42,46.25l4.77-3.52a18.89,18.89,0,0,0,3.94-26.39A18.69,18.69,0,0,0,66.75,8.91a19.39,19.39,0,0,0-2.84-.21,18.64,18.64,0,0,0-11.17,3.69L37.23,23.86a32.13,32.13,0,0,0-9.68-1.5q-1.56,0-3.12.15L47.56,5.4A27.33,27.33,0,0,1,63.93,0,27.56,27.56,0,0,1,80.36,49.73l-2.62,1.94Z"/>
      <path class="cls-3" d="M63.93,109a27.32,27.32,0,0,1-16.37-5.41L24.41,86.43a30.86,30.86,0,0,0,3.16.17,31.94,31.94,0,0,0,9.68-1.5L52.74,96.56a18.63,18.63,0,0,0,11.19,3.71,20.47,20.47,0,0,0,2.82-.21,18.87,18.87,0,0,0,8.44-33.83l-36.43-27a18.7,18.7,0,0,0-11.21-3.7c-.48,0-.95,0-1.43.08a20.23,20.23,0,0,0-3.15.5,18.95,18.95,0,0,0-10.6,29.59A18.73,18.73,0,0,0,23,72.82c.57.14,1.15.26,1.75.35.26,0,.52,0,.79.07l.8.06c.42,0,.83.08,1.24.08a18.74,18.74,0,0,0,11.18-3.69l16.75-12.4,7.32,5.41-18.89,14a27.52,27.52,0,0,1-6.44,3.53c-.5.2-1,.38-1.43.53s-1,.31-1.55.44a27.53,27.53,0,0,1-22.14-3.65l-1.1-.82A27.49,27.49,0,0,1,.28,58.6c-.06-.38-.08-.67-.11-1l0-.49a27.38,27.38,0,0,1,11-24.8l1.23-.9a27.31,27.31,0,0,1,11.1-4.27,29,29,0,0,1,4.15-.31,27.71,27.71,0,0,1,6.91.9c.52.14,1,.28,1.55.45s1,.34,1.43.52a27.82,27.82,0,0,1,6.43,3.53l36.43,27A27.56,27.56,0,0,1,68,108.66a27.08,27.08,0,0,1-4.11.31Z"/>
    </g>
  </g>
</svg>